<?xml version="1.0" standalone="no"?>
<!DOCTYPE svg PUBLIC "-//W3C//DTD SVG 20010904//EN"
 "http://www.w3.org/TR/2001/REC-SVG-20010904/DTD/svg10.dtd">
<svg version="1.0" xmlns="http://www.w3.org/2000/svg"
 width="512.000000pt" height="512.000000pt" viewBox="0 0 512.000000 512.000000"
 preserveAspectRatio="xMidYMid meet">

<g transform="translate(0.000000,512.000000) scale(0.100000,-0.100000)"
fill="#000000" stroke="none">
<path d="M2175 4946 c-44 -19 -73 -58 -130 -174 -27 -56 -53 -102 -58 -102 -5
0 -125 29 -266 65 -269 68 -292 72 -338 55 -37 -14 -391 -366 -409 -407 -10
-24 -14 -79 -14 -207 l0 -175 -349 -3 c-335 -3 -351 -4 -377 -24 -15 -11 -37
-33 -48 -48 -21 -27 -21 -38 -21 -566 0 -528 0 -539 21 -566 44 -60 67 -69
185 -72 l109 -4 2 -1228 c3 -1223 3 -1229 24 -1256 11 -15 33 -37 48 -48 l27
-21 1979 0 1979 0 27 21 c15 11 37 33 48 48 21 27 21 33 24 1256 l2 1228 109
4 c118 3 141 12 185 72 21 27 21 38 21 566 0 528 0 539 -21 566 -11 15 -33 37
-48 48 -26 20 -42 21 -377 24 l-349 3 0 175 c0 127 -4 183 -14 207 -8 18 -99
116 -202 219 -164 162 -194 187 -229 194 -32 6 -92 -6 -313 -61 -150 -37 -274
-66 -276 -64 -2 2 -29 54 -59 114 -57 114 -82 146 -130 164 -44 17 -723 14
-762 -3z m637 -371 l32 -65 -142 -143 -142 -142 -142 142 -142 143 32 65 32
65 220 0 220 0 32 -65z m-1065 -177 l253 -63 167 -167 168 -168 -528 0 -527 0
0 127 0 128 102 102 c57 57 105 103 108 103 3 0 119 -28 257 -62z m1990 -40
l103 -103 0 -127 0 -128 -527 0 -528 0 168 168 167 167 243 62 c133 33 249 62
257 62 8 1 61 -45 117 -101z m-1817 -998 l0 -320 -720 0 -720 0 0 320 0 320
720 0 720 0 0 -320z m960 0 l0 -320 -320 0 -320 0 0 320 0 320 320 0 320 0 0
-320z m1760 0 l0 -320 -720 0 -720 0 0 320 0 320 720 0 720 0 0 -320z m-2720
-1760 l0 -1120 -560 0 -560 0 0 1120 0 1120 560 0 560 0 0 -1120z m960 0 l0
-1120 -320 0 -320 0 0 1120 0 1120 320 0 320 0 0 -1120z m1440 0 l0 -1120
-560 0 -560 0 0 1120 0 1120 560 0 560 0 0 -1120z"/>
</g>
</svg>
