<?xml version="1.0" standalone="no"?>
<!DOCTYPE svg PUBLIC "-//W3C//DTD SVG 20010904//EN"
 "http://www.w3.org/TR/2001/REC-SVG-20010904/DTD/svg10.dtd">
<svg version="1.0" xmlns="http://www.w3.org/2000/svg"
 width="512.000000pt" height="512.000000pt" viewBox="0 0 512.000000 512.000000"
 preserveAspectRatio="xMidYMid meet">

<g transform="translate(0.000000,512.000000) scale(0.100000,-0.100000)"
fill="#000000" stroke="none">
<path d="M2365 4930 c-732 -65 -1375 -445 -1783 -1055 -205 -306 -335 -656
-383 -1035 -16 -122 -16 -438 0 -560 90 -706 463 -1309 1052 -1702 247 -165
542 -288 838 -348 163 -33 279 -44 471 -44 192 0 308 11 471 44 512 104 982
378 1321 770 315 364 507 798 569 1280 16 122 16 438 0 560 -132 1029 -886
1847 -1890 2050 -201 40 -474 57 -666 40z m410 -370 c732 -82 1357 -548 1640
-1224 324 -774 129 -1681 -484 -2246 -782 -721 -1960 -721 -2742 0 -322 296
-531 687 -616 1150 -25 134 -25 506 0 640 73 396 229 725 479 1010 326 370
790 613 1278 669 107 12 339 13 445 1z"/>
<path d="M3610 3575 c-22 -10 -306 -287 -757 -738 l-723 -722 -357 357 c-387
385 -379 379 -471 364 -102 -16 -166 -143 -118 -234 8 -15 205 -217 438 -449
313 -312 431 -423 453 -428 17 -4 36 -9 43 -11 7 -2 34 1 60 7 44 11 92 56
839 803 436 435 800 805 808 822 34 72 5 174 -61 215 -44 27 -111 33 -154 14z"/>
</g>
</svg>
